<svg xmlns="http://www.w3.org/2000/svg" xmlns:xlink="http://www.w3.org/1999/xlink" width="200" zoomAndPan="magnify" viewBox="0 0 150 37.5" height="50" preserveAspectRatio="xMidYMid meet" version="1.0"><defs><g/></defs><g fill="#000000" fill-opacity="1"><g transform="translate(5.781357, 29.796537)"><g><path d="M 12.003906 -0.0429688 L 12.046875 -0.25 C 12.128906 -0.25 12.253906 -0.335938 12.421875 -0.5 L 12.839844 -0.921875 C 11.835938 -2.507812 10.875 -4.058594 9.953125 -5.5625 C 9.453125 -6.316406 8.949219 -7.027344 8.449219 -7.777344 C 7.90625 -8.53125 7.359375 -9.242188 6.816406 -9.996094 C 6.902344 -10.078125 7.027344 -10.203125 7.109375 -10.289062 C 7.195312 -10.371094 7.277344 -10.496094 7.359375 -10.621094 C 7.445312 -10.707031 7.527344 -10.832031 7.613281 -10.914062 L 7.863281 -11.167969 L 10.121094 -13.425781 C 11.125 -14.429688 11.878906 -15.558594 12.378906 -16.8125 C 12.882812 -17.984375 13.175781 -19.195312 13.257812 -20.453125 C 13.339844 -21.621094 13.214844 -22.792969 12.921875 -23.964844 C 12.628906 -25.050781 12.171875 -26.054688 11.542969 -26.890625 C 10.875 -27.726562 10.121094 -28.398438 9.285156 -28.898438 C 8.363281 -29.402344 7.359375 -29.652344 6.273438 -29.652344 C 4.347656 -29.652344 2.96875 -29.570312 2.132812 -29.402344 C 1.210938 -29.234375 0.628906 -28.859375 0.375 -28.273438 C 0.0429688 -27.644531 -0.0429688 -26.765625 0.0429688 -25.636719 C 0.125 -24.464844 0.167969 -22.878906 0.167969 -20.953125 C 0.167969 -19.28125 0.167969 -17.605469 0.167969 -15.933594 C 0.0820312 -14.261719 0.0820312 -12.589844 0.167969 -10.914062 C 0.167969 -8.15625 0.25 -6.0625 0.417969 -4.640625 C 0.5 -3.179688 0.667969 -2.132812 0.921875 -1.464844 C 1.128906 -0.792969 1.339844 -0.417969 1.589844 -0.335938 C 1.714844 -0.25 1.839844 -0.210938 1.964844 -0.210938 C 2.089844 -0.167969 2.214844 -0.125 2.382812 -0.125 C 3.179688 -0.0429688 3.722656 -0.125 4.058594 -0.292969 C 4.390625 -0.460938 4.601562 -0.753906 4.683594 -1.210938 C 4.769531 -1.632812 4.769531 -2.257812 4.683594 -3.011719 C 4.601562 -3.386719 4.558594 -3.804688 4.558594 -4.265625 C 4.515625 -4.726562 4.476562 -5.226562 4.476562 -5.8125 C 4.476562 -5.8125 4.515625 -5.855469 4.601562 -5.9375 C 4.683594 -5.9375 4.726562 -6.023438 4.769531 -6.105469 L 5.394531 -5.480469 C 5.480469 -5.351562 5.605469 -5.226562 5.6875 -5.101562 C 5.773438 -4.933594 5.898438 -4.808594 6.0625 -4.640625 C 6.191406 -4.476562 6.316406 -4.265625 6.441406 -4.058594 C 6.566406 -3.847656 6.691406 -3.636719 6.859375 -3.386719 C 6.984375 -3.136719 7.152344 -2.84375 7.320312 -2.550781 C 7.484375 -2.214844 7.652344 -1.882812 7.863281 -1.546875 C 8.324219 -0.710938 8.910156 -0.210938 9.621094 0.0429688 C 10.289062 0.292969 11.082031 0.292969 12.003906 -0.0429688 Z M 4.347656 -11.917969 L 4.308594 -11.878906 C 4.097656 -12.464844 3.972656 -13.339844 3.972656 -14.511719 C 3.929688 -15.097656 3.890625 -15.765625 3.890625 -16.4375 C 3.890625 -17.105469 3.890625 -17.816406 3.890625 -18.570312 C 3.890625 -19.320312 3.847656 -20.074219 3.847656 -20.871094 C 3.847656 -21.664062 3.804688 -22.457031 3.804688 -23.296875 C 3.722656 -24.925781 3.636719 -26.472656 3.554688 -27.894531 C 4.558594 -28.0625 5.4375 -27.980469 6.191406 -27.6875 C 6.859375 -27.394531 7.484375 -26.851562 7.988281 -26.054688 C 8.574219 -25.136719 8.992188 -24.132812 9.160156 -23.042969 C 9.328125 -22.039062 9.328125 -20.996094 9.199219 -19.992188 C 9.035156 -18.945312 8.78125 -17.984375 8.449219 -17.148438 C 8.03125 -16.226562 7.613281 -15.433594 7.195312 -14.761719 C 6.691406 -14.011719 6.230469 -13.425781 5.730469 -12.921875 C 5.226562 -12.421875 4.769531 -12.085938 4.347656 -11.917969 Z M 4.347656 -11.917969 "/></g></g></g><g fill="#000000" fill-opacity="1"><g transform="translate(29.57707, 29.796537)"><g><path d="M 5.8125 -2.71875 L 5.9375 -2.886719 C 7.195312 -2.636719 8.195312 -2.636719 8.949219 -2.886719 C 9.703125 -3.136719 10.289062 -3.597656 10.75 -4.308594 C 11.167969 -4.976562 11.5 -5.898438 11.667969 -7.066406 C 11.835938 -8.195312 11.960938 -9.492188 12.046875 -11 C 12.046875 -12.171875 12.046875 -13.59375 12.046875 -15.265625 C 11.960938 -16.894531 11.878906 -18.484375 11.792969 -19.992188 C 11.667969 -21.414062 11.542969 -22.75 11.417969 -23.921875 C 11.292969 -25.011719 11.167969 -25.636719 11.082031 -25.804688 C 10.414062 -26.222656 9.703125 -26.347656 8.949219 -26.179688 C 8.488281 -26.015625 8.195312 -25.847656 8.113281 -25.679688 C 7.988281 -25.46875 7.945312 -25.175781 7.988281 -24.757812 C 7.988281 -24.171875 8.070312 -23.335938 8.238281 -22.25 C 8.28125 -21.664062 8.324219 -21.078125 8.363281 -20.453125 C 8.40625 -19.78125 8.449219 -19.113281 8.53125 -18.402344 C 8.574219 -17.648438 8.617188 -16.9375 8.65625 -16.183594 C 8.65625 -15.433594 8.699219 -14.679688 8.742188 -13.925781 C 8.742188 -13.132812 8.78125 -12.378906 8.78125 -11.667969 C 8.78125 -10.914062 8.742188 -10.246094 8.699219 -9.578125 C 8.617188 -8.910156 8.574219 -8.28125 8.488281 -7.695312 C 8.40625 -7.109375 8.324219 -6.566406 8.238281 -6.105469 C 7.988281 -5.101562 7.652344 -4.476562 7.234375 -4.222656 C 6.691406 -4.726562 6.273438 -5.226562 5.980469 -5.8125 C 5.644531 -6.398438 5.394531 -7.027344 5.269531 -7.738281 C 5.101562 -8.488281 4.976562 -9.367188 4.894531 -10.371094 C 4.808594 -10.875 4.769531 -11.417969 4.726562 -12.003906 C 4.640625 -12.589844 4.601562 -13.257812 4.558594 -13.96875 C 4.390625 -15.390625 4.222656 -17.023438 4.058594 -18.820312 C 3.804688 -20.703125 3.511719 -22.835938 3.179688 -25.175781 C 3.136719 -25.511719 2.925781 -25.804688 2.59375 -26.054688 C 2.257812 -26.222656 1.925781 -26.347656 1.589844 -26.347656 C 1.210938 -26.347656 0.878906 -26.222656 0.585938 -26.054688 C 0.210938 -25.804688 0 -25.511719 0 -25.175781 C -0.0820312 -24.882812 -0.125 -24.675781 -0.125 -24.589844 C -0.167969 -24.464844 -0.167969 -24.214844 -0.167969 -23.878906 L -0.167969 -23.335938 C -0.167969 -23.085938 -0.167969 -22.835938 -0.125 -22.542969 C -0.125 -22.207031 -0.0820312 -21.875 -0.0820312 -21.453125 C -0.0820312 -21.035156 -0.0429688 -20.578125 0.0429688 -20.074219 C 0.0820312 -19.53125 0.125 -18.902344 0.210938 -18.234375 C 0.25 -17.566406 0.292969 -16.8125 0.375 -15.976562 C 0.417969 -15.140625 0.5 -14.179688 0.585938 -13.175781 C 0.667969 -12.171875 0.753906 -11.042969 0.878906 -9.785156 C 0.921875 -8.992188 1.046875 -8.238281 1.296875 -7.484375 C 1.546875 -6.734375 1.882812 -5.980469 2.300781 -5.3125 C 2.71875 -4.601562 3.21875 -4.015625 3.804688 -3.597656 C 4.390625 -3.09375 5.058594 -2.800781 5.8125 -2.71875 Z M 5.8125 -2.71875 "/></g></g></g><g fill="#000000" fill-opacity="1"><g transform="translate(52.118168, 29.796537)"><g><path d="M 3.347656 -2.507812 L 3.597656 -2.59375 C 4.015625 -2.507812 4.601562 -2.46875 5.351562 -2.46875 C 6.023438 -2.46875 6.734375 -2.550781 7.484375 -2.800781 C 8.195312 -3.011719 8.824219 -3.347656 9.367188 -3.847656 C 9.871094 -4.347656 10.203125 -5.019531 10.371094 -5.855469 C 10.457031 -6.523438 10.496094 -7.152344 10.414062 -7.738281 C 10.332031 -8.238281 10.121094 -8.78125 9.828125 -9.367188 C 9.492188 -9.871094 9.117188 -10.457031 8.699219 -11.125 C 8.449219 -11.417969 8.195312 -11.753906 7.90625 -12.128906 C 7.613281 -12.503906 7.320312 -12.921875 6.984375 -13.425781 C 6.316406 -14.34375 5.730469 -15.140625 5.226562 -15.808594 C 4.640625 -16.476562 4.222656 -17.1875 3.972656 -17.859375 C 3.636719 -18.609375 3.472656 -19.363281 3.386719 -20.160156 C 3.304688 -20.996094 3.386719 -22.039062 3.679688 -23.296875 C 3.804688 -23.839844 3.972656 -24.171875 4.222656 -24.300781 C 4.476562 -24.425781 4.726562 -24.464844 4.976562 -24.382812 C 5.226562 -24.300781 5.4375 -24.132812 5.6875 -23.921875 C 5.855469 -23.671875 5.980469 -23.460938 6.0625 -23.296875 C 6.105469 -23.128906 6.148438 -22.960938 6.148438 -22.792969 L 6.148438 -22.292969 C 6.148438 -22.082031 6.148438 -21.832031 6.191406 -21.539062 C 6.773438 -21.164062 7.277344 -21.035156 7.738281 -21.164062 C 8.15625 -21.246094 8.53125 -21.496094 8.78125 -21.914062 C 9.035156 -22.25 9.160156 -22.710938 9.160156 -23.253906 C 9.160156 -23.753906 8.992188 -24.171875 8.65625 -24.589844 C 7.90625 -25.34375 7.027344 -25.886719 6.023438 -26.222656 C 5.019531 -26.472656 3.972656 -26.597656 2.886719 -26.515625 C 2.132812 -26.433594 1.589844 -26.222656 1.171875 -25.804688 C 0.710938 -25.34375 0.375 -24.800781 0.210938 -24.214844 C -0.0429688 -23.546875 -0.167969 -22.878906 -0.167969 -22.164062 C -0.25 -21.414062 -0.25 -20.703125 -0.167969 -20.03125 C -0.167969 -19.363281 -0.0820312 -18.777344 0.0820312 -18.277344 C 0.210938 -17.734375 0.335938 -17.355469 0.460938 -17.1875 C 0.753906 -16.730469 1.046875 -16.269531 1.296875 -15.851562 C 1.546875 -15.390625 1.839844 -14.929688 2.089844 -14.46875 C 2.59375 -13.550781 3.179688 -12.671875 3.929688 -11.878906 C 4.851562 -10.875 5.5625 -9.871094 6.105469 -8.867188 C 6.609375 -7.90625 6.816406 -6.941406 6.734375 -5.9375 C 6.648438 -5.269531 6.484375 -4.851562 6.230469 -4.601562 C 5.9375 -4.347656 5.394531 -4.222656 4.601562 -4.183594 C 4.265625 -4.347656 4.058594 -4.601562 3.972656 -4.933594 L 3.597656 -5.8125 C 3.179688 -6.523438 2.636719 -6.902344 1.964844 -6.984375 C 1.296875 -6.984375 0.710938 -6.816406 0.25 -6.398438 C 0.292969 -6.148438 0.335938 -5.9375 0.375 -5.730469 C 0.375 -5.519531 0.417969 -5.3125 0.5 -5.101562 C 0.585938 -4.640625 0.710938 -4.265625 0.921875 -3.972656 C 1.085938 -3.636719 1.378906 -3.347656 1.796875 -3.09375 C 2.214844 -2.800781 2.71875 -2.59375 3.347656 -2.507812 Z M 3.347656 -2.507812 "/></g></g></g><g fill="#000000" fill-opacity="1"><g transform="translate(73.0701, 29.796537)"><g><path d="M 3.347656 -2.507812 L 3.597656 -2.59375 C 4.015625 -2.507812 4.601562 -2.46875 5.351562 -2.46875 C 6.023438 -2.46875 6.734375 -2.550781 7.484375 -2.800781 C 8.195312 -3.011719 8.824219 -3.347656 9.367188 -3.847656 C 9.871094 -4.347656 10.203125 -5.019531 10.371094 -5.855469 C 10.457031 -6.523438 10.496094 -7.152344 10.414062 -7.738281 C 10.332031 -8.238281 10.121094 -8.78125 9.828125 -9.367188 C 9.492188 -9.871094 9.117188 -10.457031 8.699219 -11.125 C 8.449219 -11.417969 8.195312 -11.753906 7.90625 -12.128906 C 7.613281 -12.503906 7.320312 -12.921875 6.984375 -13.425781 C 6.316406 -14.34375 5.730469 -15.140625 5.226562 -15.808594 C 4.640625 -16.476562 4.222656 -17.1875 3.972656 -17.859375 C 3.636719 -18.609375 3.472656 -19.363281 3.386719 -20.160156 C 3.304688 -20.996094 3.386719 -22.039062 3.679688 -23.296875 C 3.804688 -23.839844 3.972656 -24.171875 4.222656 -24.300781 C 4.476562 -24.425781 4.726562 -24.464844 4.976562 -24.382812 C 5.226562 -24.300781 5.4375 -24.132812 5.6875 -23.921875 C 5.855469 -23.671875 5.980469 -23.460938 6.0625 -23.296875 C 6.105469 -23.128906 6.148438 -22.960938 6.148438 -22.792969 L 6.148438 -22.292969 C 6.148438 -22.082031 6.148438 -21.832031 6.191406 -21.539062 C 6.773438 -21.164062 7.277344 -21.035156 7.738281 -21.164062 C 8.15625 -21.246094 8.53125 -21.496094 8.78125 -21.914062 C 9.035156 -22.25 9.160156 -22.710938 9.160156 -23.253906 C 9.160156 -23.753906 8.992188 -24.171875 8.65625 -24.589844 C 7.90625 -25.34375 7.027344 -25.886719 6.023438 -26.222656 C 5.019531 -26.472656 3.972656 -26.597656 2.886719 -26.515625 C 2.132812 -26.433594 1.589844 -26.222656 1.171875 -25.804688 C 0.710938 -25.34375 0.375 -24.800781 0.210938 -24.214844 C -0.0429688 -23.546875 -0.167969 -22.878906 -0.167969 -22.164062 C -0.25 -21.414062 -0.25 -20.703125 -0.167969 -20.03125 C -0.167969 -19.363281 -0.0820312 -18.777344 0.0820312 -18.277344 C 0.210938 -17.734375 0.335938 -17.355469 0.460938 -17.1875 C 0.753906 -16.730469 1.046875 -16.269531 1.296875 -15.851562 C 1.546875 -15.390625 1.839844 -14.929688 2.089844 -14.46875 C 2.59375 -13.550781 3.179688 -12.671875 3.929688 -11.878906 C 4.851562 -10.875 5.5625 -9.871094 6.105469 -8.867188 C 6.609375 -7.90625 6.816406 -6.941406 6.734375 -5.9375 C 6.648438 -5.269531 6.484375 -4.851562 6.230469 -4.601562 C 5.9375 -4.347656 5.394531 -4.222656 4.601562 -4.183594 C 4.265625 -4.347656 4.058594 -4.601562 3.972656 -4.933594 L 3.597656 -5.8125 C 3.179688 -6.523438 2.636719 -6.902344 1.964844 -6.984375 C 1.296875 -6.984375 0.710938 -6.816406 0.25 -6.398438 C 0.292969 -6.148438 0.335938 -5.9375 0.375 -5.730469 C 0.375 -5.519531 0.417969 -5.3125 0.5 -5.101562 C 0.585938 -4.640625 0.710938 -4.265625 0.921875 -3.972656 C 1.085938 -3.636719 1.378906 -3.347656 1.796875 -3.09375 C 2.214844 -2.800781 2.71875 -2.59375 3.347656 -2.507812 Z M 3.347656 -2.507812 "/></g></g></g><g fill="#000000" fill-opacity="1"><g transform="translate(94.022033, 29.796537)"><g><path d="M 7.109375 -2.761719 L 7.277344 -2.84375 C 7.359375 -2.84375 7.484375 -2.925781 7.652344 -3.09375 C 7.738281 -3.179688 7.863281 -3.261719 8.03125 -3.386719 C 7.820312 -3.679688 7.570312 -3.890625 7.277344 -4.058594 C 6.941406 -4.183594 6.648438 -4.265625 6.355469 -4.308594 C 6.191406 -4.308594 6.023438 -4.347656 5.855469 -4.347656 L 5.351562 -4.347656 C 5.019531 -4.347656 4.683594 -4.390625 4.347656 -4.558594 L 4.308594 -13.96875 C 4.769531 -14.011719 5.1875 -14.050781 5.5625 -14.09375 C 5.898438 -14.09375 6.230469 -14.136719 6.566406 -14.179688 C 6.859375 -14.179688 7.109375 -14.21875 7.359375 -14.261719 C 7.570312 -14.261719 7.777344 -14.304688 7.945312 -14.386719 C 8.238281 -14.46875 8.449219 -14.554688 8.617188 -14.722656 C 8.699219 -14.804688 8.78125 -14.972656 8.78125 -15.222656 C 8.617188 -15.390625 8.40625 -15.558594 8.15625 -15.640625 C 7.945312 -15.683594 7.652344 -15.726562 7.277344 -15.808594 C 7.109375 -15.808594 6.902344 -15.851562 6.691406 -15.851562 L 6.0625 -15.851562 C 5.8125 -15.851562 5.5625 -15.851562 5.269531 -15.894531 C 4.976562 -15.894531 4.683594 -15.933594 4.347656 -16.019531 C 4.265625 -16.351562 4.222656 -16.730469 4.222656 -17.148438 C 4.183594 -17.523438 4.140625 -17.941406 4.140625 -18.359375 C 4.097656 -18.777344 4.058594 -19.15625 4.058594 -19.574219 C 4.058594 -19.992188 4.058594 -20.367188 4.058594 -20.785156 L 4.058594 -22.917969 C 4.058594 -23.210938 4.058594 -23.503906 4.058594 -23.753906 C 4.058594 -24.007812 4.097656 -24.214844 4.140625 -24.382812 L 5.226562 -24.382812 C 5.3125 -24.382812 5.4375 -24.382812 5.605469 -24.425781 C 6.355469 -24.507812 6.902344 -24.632812 7.152344 -24.800781 C 7.402344 -24.96875 7.484375 -25.136719 7.402344 -25.300781 C 7.320312 -25.46875 7.109375 -25.636719 6.816406 -25.804688 C 6.566406 -25.929688 6.273438 -26.015625 5.9375 -26.097656 C 5.1875 -26.179688 4.558594 -26.265625 3.972656 -26.304688 C 3.386719 -26.347656 2.925781 -26.390625 2.550781 -26.390625 C 1.757812 -26.390625 1.171875 -26.265625 0.792969 -26.054688 C 0.375 -25.804688 0.167969 -25.429688 0.0820312 -24.925781 C 0 -24.339844 -0.0429688 -23.628906 -0.0429688 -22.792969 C -0.125 -19.613281 -0.0820312 -16.519531 0.0820312 -13.507812 C 0.167969 -10.414062 0.375 -7.320312 0.710938 -4.222656 C 0.792969 -3.386719 1.171875 -2.925781 1.839844 -2.84375 C 2.257812 -2.761719 2.71875 -2.71875 3.136719 -2.675781 C 3.554688 -2.59375 4.015625 -2.550781 4.476562 -2.507812 C 5.3125 -2.425781 6.191406 -2.507812 7.109375 -2.761719 Z M 7.109375 -2.761719 "/></g></g></g><g fill="#000000" fill-opacity="1"><g transform="translate(113.301147, 29.796537)"><g><path d="M 9.035156 -2.886719 L 9.160156 -2.96875 C 9.328125 -2.96875 9.535156 -3.054688 9.703125 -3.21875 L 10.203125 -3.597656 C 10.078125 -4.058594 9.785156 -4.308594 9.367188 -4.390625 C 8.949219 -4.390625 8.488281 -4.390625 7.988281 -4.390625 C 7.484375 -4.308594 6.984375 -4.308594 6.484375 -4.390625 C 5.980469 -4.390625 5.605469 -4.683594 5.3125 -5.269531 C 4.976562 -5.9375 4.769531 -6.859375 4.683594 -8.03125 C 4.601562 -8.617188 4.558594 -9.242188 4.558594 -9.953125 C 4.515625 -10.621094 4.476562 -11.375 4.476562 -12.210938 C 4.433594 -13.007812 4.390625 -13.886719 4.390625 -14.847656 C 4.390625 -15.808594 4.347656 -16.855469 4.308594 -17.941406 C 4.222656 -19.03125 4.183594 -20.160156 4.097656 -21.371094 C 4.015625 -22.585938 3.890625 -23.878906 3.765625 -25.21875 C 3.679688 -25.679688 3.429688 -26.015625 3.011719 -26.265625 C 2.257812 -26.597656 1.589844 -26.640625 1.003906 -26.390625 C 0.375 -26.097656 0.0429688 -25.34375 0 -24.171875 C -0.0429688 -23.878906 -0.0820312 -23.628906 -0.0820312 -23.421875 C -0.0820312 -23.167969 -0.0820312 -22.960938 -0.0820312 -22.792969 L -0.0820312 -17.648438 C -0.0820312 -17.148438 -0.0820312 -16.5625 -0.0820312 -15.933594 C -0.0820312 -15.308594 -0.0429688 -14.636719 0 -13.925781 C 0 -13.175781 0.0429688 -12.378906 0.0820312 -11.460938 C 0.0820312 -10.539062 0.125 -9.535156 0.210938 -8.449219 C 0.292969 -5.6875 1.128906 -3.929688 2.71875 -3.09375 C 4.308594 -2.257812 6.398438 -2.175781 9.035156 -2.886719 Z M 9.035156 -2.886719 "/></g></g></g><g fill="#000000" fill-opacity="1"><g transform="translate(133.960344, 29.796537)"><g><path d="M 9.035156 -2.886719 L 9.160156 -2.96875 C 9.328125 -2.96875 9.535156 -3.054688 9.703125 -3.21875 L 10.203125 -3.597656 C 10.078125 -4.058594 9.785156 -4.308594 9.367188 -4.390625 C 8.949219 -4.390625 8.488281 -4.390625 7.988281 -4.390625 C 7.484375 -4.308594 6.984375 -4.308594 6.484375 -4.390625 C 5.980469 -4.390625 5.605469 -4.683594 5.3125 -5.269531 C 4.976562 -5.9375 4.769531 -6.859375 4.683594 -8.03125 C 4.601562 -8.617188 4.558594 -9.242188 4.558594 -9.953125 C 4.515625 -10.621094 4.476562 -11.375 4.476562 -12.210938 C 4.433594 -13.007812 4.390625 -13.886719 4.390625 -14.847656 C 4.390625 -15.808594 4.347656 -16.855469 4.308594 -17.941406 C 4.222656 -19.03125 4.183594 -20.160156 4.097656 -21.371094 C 4.015625 -22.585938 3.890625 -23.878906 3.765625 -25.21875 C 3.679688 -25.679688 3.429688 -26.015625 3.011719 -26.265625 C 2.257812 -26.597656 1.589844 -26.640625 1.003906 -26.390625 C 0.375 -26.097656 0.0429688 -25.34375 0 -24.171875 C -0.0429688 -23.878906 -0.0820312 -23.628906 -0.0820312 -23.421875 C -0.0820312 -23.167969 -0.0820312 -22.960938 -0.0820312 -22.792969 L -0.0820312 -17.648438 C -0.0820312 -17.148438 -0.0820312 -16.5625 -0.0820312 -15.933594 C -0.0820312 -15.308594 -0.0429688 -14.636719 0 -13.925781 C 0 -13.175781 0.0429688 -12.378906 0.0820312 -11.460938 C 0.0820312 -10.539062 0.125 -9.535156 0.210938 -8.449219 C 0.292969 -5.6875 1.128906 -3.929688 2.71875 -3.09375 C 4.308594 -2.257812 6.398438 -2.175781 9.035156 -2.886719 Z M 9.035156 -2.886719 "/></g></g></g><g fill="#000000" fill-opacity="1"><g transform="translate(107.225808, 36.190639)"><g><path d="M 1.917969 0.0117188 L 2 0 C 2.101562 0.0195312 2.183594 0.0117188 2.257812 -0.0117188 C 2.339844 -0.03125 2.421875 -0.0703125 2.503906 -0.144531 C 2.503906 -0.574219 2.492188 -0.984375 2.480469 -1.375 C 2.472656 -1.765625 2.460938 -2.121094 2.449219 -2.472656 C 2.429688 -2.808594 2.421875 -3.128906 2.410156 -3.425781 C 2.390625 -3.710938 2.378906 -3.988281 2.367188 -4.257812 C 2.347656 -4.511719 2.339844 -4.75 2.339844 -4.964844 C 2.328125 -5.179688 2.316406 -5.375 2.316406 -5.558594 C 2.296875 -5.90625 2.316406 -6.203125 2.378906 -6.449219 C 2.480469 -6.472656 2.625 -6.472656 2.808594 -6.460938 C 2.890625 -6.449219 2.964844 -6.441406 3.046875 -6.441406 C 3.128906 -6.441406 3.199219 -6.429688 3.28125 -6.429688 C 3.425781 -6.410156 3.570312 -6.410156 3.710938 -6.429688 C 3.835938 -6.429688 3.9375 -6.472656 4.03125 -6.542969 C 4.082031 -6.59375 4.101562 -6.65625 4.082031 -6.738281 C 4.0625 -6.820312 3.957031 -6.882812 3.785156 -6.921875 C 3.628906 -6.953125 3.488281 -6.984375 3.363281 -7.003906 C 3.242188 -7.023438 3.117188 -7.035156 3.003906 -7.054688 C 2.777344 -7.085938 2.542969 -7.097656 2.308594 -7.085938 C 2.0625 -7.066406 1.804688 -7.046875 1.519531 -7.023438 C 1.230469 -6.984375 0.882812 -6.941406 0.472656 -6.902344 C 0.296875 -6.882812 0.175781 -6.851562 0.113281 -6.808594 C 0.0429688 -6.769531 0 -6.726562 -0.0195312 -6.6875 C -0.0429688 -6.644531 -0.0429688 -6.605469 -0.0195312 -6.5625 C 0 -6.523438 0.0195312 -6.5 0.0429688 -6.492188 C 0.113281 -6.460938 0.175781 -6.441406 0.234375 -6.429688 C 0.289062 -6.410156 0.339844 -6.398438 0.390625 -6.390625 C 0.472656 -6.367188 0.5625 -6.359375 0.644531 -6.359375 L 1.28125 -6.359375 C 1.28125 -6.253906 1.292969 -6.101562 1.3125 -5.898438 C 1.3125 -5.671875 1.324219 -5.414062 1.34375 -5.128906 C 1.34375 -4.820312 1.355469 -4.503906 1.375 -4.175781 C 1.375 -4 1.382812 -3.824219 1.382812 -3.660156 C 1.382812 -3.488281 1.394531 -3.3125 1.40625 -3.136719 C 1.40625 -2.953125 1.414062 -2.789062 1.414062 -2.625 C 1.414062 -2.460938 1.425781 -2.296875 1.4375 -2.144531 C 1.445312 -1.804688 1.457031 -1.519531 1.464844 -1.292969 C 1.464844 -1.167969 1.476562 -1.054688 1.476562 -0.953125 C 1.476562 -0.851562 1.488281 -0.757812 1.488281 -0.6875 L 1.488281 -0.460938 C 1.488281 -0.296875 1.519531 -0.183594 1.578125 -0.113281 C 1.621094 -0.03125 1.734375 0.0117188 1.917969 0.0117188 Z M 1.917969 0.0117188 "/></g></g></g><g fill="#000000" fill-opacity="1"><g transform="translate(113.901363, 36.190639)"><g><path d="M 0.953125 -0.625 L 0.996094 -0.617188 C 1.109375 -0.625 1.191406 -0.644531 1.242188 -0.6875 C 1.292969 -0.726562 1.324219 -0.789062 1.332031 -0.882812 C 1.332031 -0.964844 1.332031 -1.085938 1.332031 -1.25 C 1.324219 -1.394531 1.3125 -1.601562 1.300781 -1.855469 L 1.300781 -1.957031 C 1.300781 -1.988281 1.332031 -2.019531 1.394531 -2.0625 L 1.488281 -1.96875 C 1.496094 -1.949219 1.519531 -1.929688 1.539062 -1.90625 C 1.558594 -1.875 1.589844 -1.835938 1.628906 -1.792969 C 1.671875 -1.753906 1.710938 -1.691406 1.773438 -1.628906 C 1.824219 -1.558594 1.898438 -1.464844 1.980469 -1.363281 C 2.0625 -1.261719 2.152344 -1.136719 2.277344 -0.996094 C 2.359375 -0.871094 2.472656 -0.789062 2.613281 -0.75 C 2.757812 -0.707031 2.871094 -0.6875 2.964844 -0.699219 C 3.066406 -0.707031 3.136719 -0.75 3.199219 -0.808594 C 3.242188 -0.871094 3.242188 -0.945312 3.199219 -1.035156 C 3.179688 -1.066406 3.160156 -1.097656 3.136719 -1.128906 C 3.117188 -1.160156 3.097656 -1.191406 3.085938 -1.21875 C 3.054688 -1.261719 2.984375 -1.34375 2.882812 -1.464844 C 2.777344 -1.570312 2.636719 -1.734375 2.441406 -1.96875 C 2.234375 -2.195312 1.957031 -2.511719 1.609375 -2.921875 C 1.835938 -3.210938 2.03125 -3.464844 2.195312 -3.691406 C 2.347656 -3.917969 2.472656 -4.113281 2.554688 -4.296875 C 2.636719 -4.480469 2.6875 -4.667969 2.707031 -4.851562 C 2.726562 -5.035156 2.726562 -5.242188 2.707031 -5.464844 C 2.667969 -5.917969 2.429688 -6.214844 2 -6.359375 C 1.917969 -6.378906 1.835938 -6.410156 1.753906 -6.429688 C 1.660156 -6.449219 1.558594 -6.472656 1.457031 -6.492188 C 1.230469 -6.53125 1.027344 -6.554688 0.832031 -6.554688 C 0.625 -6.554688 0.441406 -6.523438 0.296875 -6.460938 C 0.144531 -6.398438 0.0625 -6.285156 0.0429688 -6.144531 C 0.0117188 -5.949219 -0.0117188 -5.792969 -0.0195312 -5.691406 C -0.03125 -5.628906 -0.0429688 -5.578125 -0.0429688 -5.527344 C -0.0429688 -5.464844 -0.0429688 -5.414062 -0.0429688 -5.351562 C -0.0429688 -5.292969 -0.0429688 -5.21875 -0.0429688 -5.148438 C -0.0429688 -5.066406 -0.03125 -4.984375 -0.0195312 -4.902344 C -0.0195312 -4.71875 0 -4.460938 0.0429688 -4.132812 C 0.0625 -3.84375 0.0703125 -3.589844 0.09375 -3.363281 C 0.113281 -3.136719 0.125 -2.933594 0.144531 -2.757812 C 0.152344 -2.574219 0.164062 -2.421875 0.175781 -2.277344 C 0.183594 -2.132812 0.195312 -2 0.214844 -1.886719 C 0.226562 -1.765625 0.234375 -1.671875 0.234375 -1.589844 C 0.234375 -1.507812 0.246094 -1.4375 0.257812 -1.382812 C 0.257812 -1.261719 0.265625 -1.179688 0.289062 -1.136719 C 0.289062 -1.109375 0.296875 -1.085938 0.296875 -1.066406 L 0.296875 -1.027344 L 0.308594 -0.933594 C 0.339844 -0.769531 0.410156 -0.675781 0.535156 -0.65625 C 0.65625 -0.617188 0.789062 -0.605469 0.953125 -0.625 Z M 1.148438 -3.527344 L 1.148438 -3.507812 C 1.117188 -3.742188 1.097656 -3.957031 1.078125 -4.144531 C 1.054688 -4.328125 1.035156 -4.503906 1.027344 -4.65625 C 1.003906 -4.800781 0.996094 -4.933594 0.984375 -5.054688 C 0.964844 -5.167969 0.953125 -5.269531 0.945312 -5.363281 C 0.921875 -5.445312 0.914062 -5.527344 0.914062 -5.589844 C 0.914062 -5.652344 0.902344 -5.703125 0.902344 -5.742188 C 0.890625 -5.785156 0.882812 -5.816406 0.882812 -5.84375 C 0.882812 -5.875 0.882812 -5.90625 0.882812 -5.925781 L 0.882812 -6.089844 C 0.882812 -6.113281 0.882812 -6.144531 0.890625 -6.183594 C 0.953125 -6.164062 1.003906 -6.152344 1.066406 -6.144531 C 1.117188 -6.132812 1.167969 -6.121094 1.21875 -6.113281 C 1.261719 -6.089844 1.3125 -6.082031 1.355469 -6.070312 C 1.394531 -6.050781 1.425781 -6.039062 1.464844 -6.03125 C 1.527344 -5.988281 1.589844 -5.9375 1.652344 -5.875 C 1.703125 -5.792969 1.742188 -5.703125 1.773438 -5.589844 C 1.816406 -5.40625 1.824219 -5.21875 1.804688 -5.035156 C 1.785156 -4.839844 1.742188 -4.65625 1.683594 -4.472656 C 1.621094 -4.296875 1.546875 -4.121094 1.445312 -3.949219 C 1.355469 -3.785156 1.25 -3.640625 1.148438 -3.527344 Z M 1.148438 -3.527344 "/></g></g></g><g fill="#000000" fill-opacity="1"><g transform="translate(119.705301, 36.190639)"><g><path d="M 0.441406 -0.6875 L 0.460938 -0.707031 C 0.503906 -0.6875 0.585938 -0.675781 0.707031 -0.675781 C 0.832031 -0.65625 0.972656 -0.644531 1.136719 -0.644531 C 1.300781 -0.636719 1.464844 -0.636719 1.640625 -0.644531 C 1.804688 -0.644531 1.957031 -0.667969 2.101562 -0.707031 C 2.226562 -0.726562 2.328125 -0.78125 2.410156 -0.851562 C 2.472656 -0.914062 2.492188 -0.996094 2.449219 -1.097656 C 2.429688 -1.160156 2.359375 -1.210938 2.234375 -1.25 C 2.113281 -1.273438 1.96875 -1.292969 1.816406 -1.3125 C 1.734375 -1.3125 1.660156 -1.324219 1.589844 -1.324219 C 1.507812 -1.324219 1.4375 -1.332031 1.363281 -1.332031 L 1.027344 -1.332031 L 1.109375 -1.578125 C 1.136719 -1.660156 1.167969 -1.753906 1.210938 -1.855469 C 1.242188 -1.957031 1.28125 -2.082031 1.324219 -2.214844 C 1.363281 -2.339844 1.40625 -2.472656 1.457031 -2.613281 C 1.496094 -2.757812 1.546875 -2.902344 1.609375 -3.066406 C 1.660156 -3.21875 1.710938 -3.375 1.765625 -3.515625 C 1.816406 -3.660156 1.867188 -3.816406 1.929688 -3.957031 C 1.980469 -4.101562 2.03125 -4.234375 2.070312 -4.367188 C 2.113281 -4.492188 2.164062 -4.613281 2.214844 -4.738281 C 2.296875 -4.964844 2.367188 -5.128906 2.429688 -5.230469 C 2.460938 -5.292969 2.492188 -5.351562 2.523438 -5.414062 C 2.554688 -5.464844 2.585938 -5.515625 2.605469 -5.570312 C 2.644531 -5.671875 2.675781 -5.753906 2.6875 -5.816406 C 2.6875 -5.875 2.6875 -5.9375 2.6875 -6 C 2.667969 -6.039062 2.644531 -6.089844 2.625 -6.152344 C 2.53125 -6.316406 2.378906 -6.417969 2.164062 -6.441406 C 2.101562 -6.441406 2.039062 -6.449219 1.96875 -6.449219 L 1.496094 -6.449219 C 1.414062 -6.449219 1.324219 -6.441406 1.242188 -6.441406 C 1.148438 -6.429688 1.054688 -6.417969 0.972656 -6.417969 C 0.890625 -6.417969 0.808594 -6.410156 0.726562 -6.398438 C 0.5625 -6.378906 0.429688 -6.347656 0.316406 -6.308594 C 0.257812 -6.101562 0.234375 -5.949219 0.257812 -5.855469 C 0.265625 -5.753906 0.316406 -5.691406 0.421875 -5.671875 C 0.523438 -5.640625 0.667969 -5.628906 0.863281 -5.640625 C 0.953125 -5.640625 1.066406 -5.652344 1.199219 -5.652344 L 1.628906 -5.652344 C 1.570312 -5.464844 1.519531 -5.324219 1.476562 -5.21875 C 1.457031 -5.160156 1.4375 -5.105469 1.414062 -5.066406 C 1.394531 -5.023438 1.375 -4.984375 1.363281 -4.941406 C 1.34375 -4.902344 1.332031 -4.851562 1.3125 -4.808594 C 1.292969 -4.769531 1.273438 -4.71875 1.25 -4.667969 C 1.230469 -4.605469 1.199219 -4.542969 1.167969 -4.480469 C 1.136719 -4.410156 1.109375 -4.328125 1.078125 -4.234375 C 1.046875 -4.164062 1.015625 -4.09375 0.996094 -4.03125 C 0.972656 -3.957031 0.953125 -3.886719 0.933594 -3.816406 C 0.914062 -3.734375 0.882812 -3.660156 0.863281 -3.597656 C 0.839844 -3.527344 0.808594 -3.457031 0.789062 -3.394531 C 0.5625 -2.820312 0.390625 -2.367188 0.265625 -2.039062 C 0.125 -1.683594 0.0429688 -1.414062 0 -1.25 C -0.0429688 -1.054688 -0.03125 -0.921875 0.0429688 -0.863281 C 0.113281 -0.78125 0.246094 -0.726562 0.441406 -0.6875 Z M 0.441406 -0.6875 "/></g></g></g><g fill="#000000" fill-opacity="1"><g transform="translate(124.976021, 36.190639)"><g><path d="M 0.265625 -0.675781 L 0.339844 -0.699219 C 0.503906 -0.675781 0.625 -0.6875 0.707031 -0.726562 C 0.789062 -0.75 0.851562 -0.808594 0.890625 -0.914062 C 0.933594 -1.015625 0.964844 -1.136719 0.972656 -1.300781 C 0.972656 -1.464844 0.996094 -1.683594 1.035156 -1.949219 L 1.855469 -1.949219 C 1.898438 -1.792969 1.929688 -1.640625 1.949219 -1.496094 C 1.949219 -1.414062 1.957031 -1.34375 1.957031 -1.28125 C 1.957031 -1.21875 1.96875 -1.148438 1.988281 -1.085938 C 2.011719 -0.945312 2.050781 -0.839844 2.132812 -0.769531 C 2.195312 -0.6875 2.277344 -0.644531 2.378906 -0.644531 C 2.460938 -0.625 2.554688 -0.636719 2.65625 -0.675781 C 2.738281 -0.699219 2.808594 -0.738281 2.871094 -0.800781 C 2.871094 -0.820312 2.859375 -0.882812 2.851562 -0.964844 C 2.839844 -1.046875 2.832031 -1.148438 2.820312 -1.292969 C 2.777344 -1.558594 2.738281 -1.898438 2.695312 -2.308594 C 2.636719 -2.695312 2.574219 -3.117188 2.511719 -3.570312 C 2.472656 -3.785156 2.441406 -4 2.398438 -4.203125 C 2.359375 -4.410156 2.316406 -4.613281 2.277344 -4.820312 C 2.195312 -5.210938 2.113281 -5.539062 2.03125 -5.804688 C 1.949219 -6.070312 1.867188 -6.226562 1.804688 -6.253906 C 1.539062 -6.378906 1.324219 -6.449219 1.167969 -6.472656 C 1.003906 -6.480469 0.890625 -6.449219 0.808594 -6.378906 C 0.726562 -6.296875 0.667969 -6.203125 0.636719 -6.082031 C 0.617188 -6.019531 0.605469 -5.949219 0.59375 -5.886719 C 0.574219 -5.824219 0.5625 -5.753906 0.554688 -5.691406 C 0.511719 -5.425781 0.480469 -5.1875 0.453125 -4.964844 C 0.421875 -4.738281 0.398438 -4.53125 0.378906 -4.347656 C 0.359375 -4.164062 0.339844 -3.988281 0.316406 -3.835938 C 0.296875 -3.671875 0.277344 -3.527344 0.265625 -3.40625 C 0.246094 -3.269531 0.234375 -3.148438 0.226562 -3.046875 C 0.214844 -2.933594 0.207031 -2.832031 0.195312 -2.738281 C 0.175781 -2.554688 0.152344 -2.378906 0.132812 -2.214844 L 0.0703125 -1.722656 L 0.0195312 -1.445312 C 0 -1.34375 -0.0195312 -1.230469 -0.0429688 -1.117188 C -0.0820312 -0.953125 -0.0703125 -0.851562 -0.03125 -0.789062 C 0.0117188 -0.726562 0.101562 -0.6875 0.265625 -0.675781 Z M 1.109375 -2.585938 L 1.128906 -2.59375 C 1.117188 -2.625 1.117188 -2.667969 1.117188 -2.726562 L 1.117188 -2.933594 C 1.117188 -3.085938 1.128906 -3.261719 1.148438 -3.445312 C 1.160156 -3.539062 1.167969 -3.628906 1.191406 -3.722656 C 1.199219 -3.804688 1.210938 -3.898438 1.230469 -4 C 1.25 -4.164062 1.300781 -4.316406 1.375 -4.441406 C 1.382812 -4.378906 1.394531 -4.316406 1.40625 -4.277344 C 1.40625 -4.234375 1.414062 -4.195312 1.425781 -4.164062 C 1.425781 -4.101562 1.4375 -4.050781 1.457031 -4.011719 C 1.457031 -3.980469 1.464844 -3.925781 1.488281 -3.867188 C 1.488281 -3.835938 1.496094 -3.804688 1.496094 -3.773438 C 1.496094 -3.734375 1.507812 -3.691406 1.527344 -3.652344 C 1.539062 -3.597656 1.546875 -3.546875 1.558594 -3.488281 L 1.601562 -3.269531 C 1.621094 -3.105469 1.660156 -2.890625 1.722656 -2.625 C 1.601562 -2.585938 1.496094 -2.5625 1.40625 -2.5625 C 1.34375 -2.5625 1.292969 -2.5625 1.25 -2.5625 C 1.199219 -2.5625 1.148438 -2.574219 1.109375 -2.585938 Z M 1.109375 -2.585938 "/></g></g></g><g fill="#000000" fill-opacity="1"><g transform="translate(130.636405, 36.190639)"><g><path d="M 0.820312 -0.617188 L 0.882812 -0.636719 C 0.984375 -0.617188 1.128906 -0.605469 1.3125 -0.605469 C 1.476562 -0.605469 1.652344 -0.625 1.835938 -0.6875 C 2.011719 -0.738281 2.164062 -0.820312 2.296875 -0.945312 C 2.421875 -1.066406 2.503906 -1.230469 2.542969 -1.4375 C 2.5625 -1.601562 2.574219 -1.753906 2.554688 -1.898438 C 2.53125 -2.019531 2.480469 -2.152344 2.410156 -2.296875 C 2.328125 -2.421875 2.234375 -2.5625 2.132812 -2.726562 C 2.070312 -2.800781 2.011719 -2.882812 1.9375 -2.972656 C 1.867188 -3.066406 1.792969 -3.167969 1.710938 -3.292969 C 1.546875 -3.515625 1.40625 -3.710938 1.28125 -3.875 C 1.136719 -4.039062 1.035156 -4.214844 0.972656 -4.378906 C 0.890625 -4.5625 0.851562 -4.75 0.832031 -4.941406 C 0.808594 -5.148438 0.832031 -5.40625 0.902344 -5.710938 C 0.933594 -5.84375 0.972656 -5.925781 1.035156 -5.957031 C 1.097656 -5.988281 1.160156 -6 1.21875 -5.980469 C 1.28125 -5.957031 1.332031 -5.917969 1.394531 -5.867188 C 1.4375 -5.804688 1.464844 -5.753906 1.488281 -5.710938 C 1.496094 -5.671875 1.507812 -5.628906 1.507812 -5.589844 L 1.507812 -5.464844 C 1.507812 -5.414062 1.507812 -5.351562 1.519531 -5.28125 C 1.660156 -5.1875 1.785156 -5.160156 1.898438 -5.1875 C 2 -5.210938 2.09375 -5.269531 2.152344 -5.375 C 2.214844 -5.457031 2.246094 -5.570312 2.246094 -5.703125 C 2.246094 -5.824219 2.203125 -5.925781 2.121094 -6.03125 C 1.9375 -6.214844 1.722656 -6.347656 1.476562 -6.429688 C 1.230469 -6.492188 0.972656 -6.523438 0.707031 -6.5 C 0.523438 -6.480469 0.390625 -6.429688 0.289062 -6.328125 C 0.175781 -6.214844 0.09375 -6.082031 0.0507812 -5.9375 C -0.0117188 -5.773438 -0.0429688 -5.609375 -0.0429688 -5.433594 C -0.0625 -5.25 -0.0625 -5.078125 -0.0429688 -4.914062 C -0.0429688 -4.75 -0.0195312 -4.605469 0.0195312 -4.480469 C 0.0507812 -4.347656 0.0820312 -4.257812 0.113281 -4.214844 C 0.183594 -4.101562 0.257812 -3.988281 0.316406 -3.886719 C 0.378906 -3.773438 0.453125 -3.660156 0.511719 -3.546875 C 0.636719 -3.324219 0.78125 -3.105469 0.964844 -2.914062 C 1.191406 -2.667969 1.363281 -2.421875 1.496094 -2.175781 C 1.621094 -1.9375 1.671875 -1.703125 1.652344 -1.457031 C 1.628906 -1.292969 1.589844 -1.191406 1.527344 -1.128906 C 1.457031 -1.066406 1.324219 -1.035156 1.128906 -1.027344 C 1.046875 -1.066406 0.996094 -1.128906 0.972656 -1.210938 L 0.882812 -1.425781 C 0.78125 -1.601562 0.644531 -1.691406 0.480469 -1.710938 C 0.316406 -1.710938 0.175781 -1.671875 0.0625 -1.570312 C 0.0703125 -1.507812 0.0820312 -1.457031 0.09375 -1.40625 C 0.09375 -1.355469 0.101562 -1.300781 0.125 -1.25 C 0.144531 -1.136719 0.175781 -1.046875 0.226562 -0.972656 C 0.265625 -0.890625 0.339844 -0.820312 0.441406 -0.757812 C 0.542969 -0.6875 0.667969 -0.636719 0.820312 -0.617188 Z M 0.820312 -0.617188 "/></g></g></g><g fill="#000000" fill-opacity="1"><g transform="translate(135.773818, 36.190639)"><g><path d="M 0.636719 -0.59375 L 0.65625 -0.707031 C 0.832031 -0.6875 0.953125 -0.707031 1.027344 -0.75 C 1.097656 -0.789062 1.136719 -0.871094 1.148438 -1.003906 C 1.148438 -1.128906 1.136719 -1.324219 1.117188 -1.589844 C 1.085938 -1.835938 1.054688 -2.183594 1.027344 -2.625 C 1.027344 -2.675781 1.015625 -2.71875 1.015625 -2.757812 C 0.996094 -2.800781 1.027344 -2.839844 1.109375 -2.882812 C 1.273438 -2.613281 1.425781 -2.378906 1.570312 -2.175781 C 1.703125 -1.96875 1.824219 -1.785156 1.929688 -1.628906 C 2.132812 -1.324219 2.308594 -1.097656 2.449219 -0.953125 C 2.59375 -0.808594 2.726562 -0.738281 2.851562 -0.738281 C 2.964844 -0.738281 3.105469 -0.78125 3.292969 -0.882812 C 3.292969 -0.902344 3.300781 -0.945312 3.300781 -1.003906 C 3.300781 -1.046875 3.28125 -1.109375 3.242188 -1.191406 C 3.199219 -1.273438 3.136719 -1.382812 3.054688 -1.527344 C 3.015625 -1.601562 2.964844 -1.683594 2.902344 -1.785156 C 2.839844 -1.886719 2.769531 -2 2.6875 -2.132812 C 2.503906 -2.421875 2.347656 -2.65625 2.226562 -2.839844 C 2.164062 -2.921875 2.101562 -3.003906 2.050781 -3.078125 C 1.988281 -3.148438 1.9375 -3.210938 1.898438 -3.269531 C 1.847656 -3.324219 1.792969 -3.375 1.753906 -3.425781 C 1.710938 -3.464844 1.671875 -3.515625 1.628906 -3.558594 L 1.355469 -3.835938 C 1.425781 -3.9375 1.496094 -4.050781 1.558594 -4.152344 C 1.621094 -4.257812 1.691406 -4.359375 1.765625 -4.460938 C 1.824219 -4.5625 1.898438 -4.667969 1.957031 -4.769531 C 2.019531 -4.871094 2.09375 -4.964844 2.164062 -5.066406 C 2.308594 -5.269531 2.460938 -5.464844 2.625 -5.652344 C 2.789062 -5.835938 2.941406 -6.039062 3.085938 -6.265625 C 2.921875 -6.328125 2.820312 -6.367188 2.777344 -6.390625 C 2.71875 -6.390625 2.644531 -6.390625 2.5625 -6.390625 C 2.472656 -6.378906 2.359375 -6.308594 2.226562 -6.183594 C 2.082031 -6.0625 1.949219 -5.917969 1.824219 -5.753906 C 1.753906 -5.671875 1.691406 -5.589844 1.628906 -5.507812 C 1.570312 -5.425781 1.507812 -5.34375 1.457031 -5.269531 C 1.394531 -5.1875 1.355469 -5.128906 1.3125 -5.066406 L 1.210938 -4.914062 C 1.191406 -4.882812 1.179688 -4.851562 1.167969 -4.832031 C 1.148438 -4.808594 1.136719 -4.777344 1.128906 -4.75 C 1.109375 -4.6875 1.054688 -4.644531 0.984375 -4.636719 C 0.945312 -4.667969 0.921875 -4.757812 0.921875 -4.921875 C 0.914062 -5.003906 0.902344 -5.085938 0.902344 -5.179688 C 0.890625 -5.261719 0.882812 -5.351562 0.871094 -5.457031 C 0.851562 -5.546875 0.839844 -5.640625 0.832031 -5.734375 C 0.808594 -5.816406 0.800781 -5.90625 0.789062 -5.988281 C 0.75 -6.152344 0.699219 -6.253906 0.636719 -6.285156 C 0.460938 -6.367188 0.289062 -6.378906 0.101562 -6.296875 C 0.0195312 -6.253906 -0.0117188 -6.195312 -0.0117188 -6.113281 L -0.0117188 -5.957031 C -0.0117188 -5.90625 -0.0117188 -5.855469 0 -5.804688 C 0.0117188 -5.609375 0.0195312 -5.433594 0.03125 -5.28125 C 0.03125 -5.117188 0.0429688 -4.972656 0.0507812 -4.851562 C 0.0507812 -4.71875 0.0625 -4.59375 0.0625 -4.472656 C 0.0625 -4.347656 0.0703125 -4.234375 0.0820312 -4.121094 C 0.0820312 -3.898438 0.09375 -3.652344 0.113281 -3.382812 C 0.113281 -3.117188 0.125 -2.777344 0.144531 -2.367188 C 0.144531 -2.257812 0.152344 -2.144531 0.152344 -2.039062 C 0.152344 -1.9375 0.164062 -1.835938 0.175781 -1.734375 C 0.183594 -1.527344 0.183594 -1.3125 0.175781 -1.097656 L 0.175781 -0.972656 C 0.175781 -0.933594 0.175781 -0.902344 0.183594 -0.871094 C 0.183594 -0.808594 0.207031 -0.757812 0.246094 -0.71875 C 0.277344 -0.675781 0.316406 -0.644531 0.378906 -0.625 C 0.441406 -0.605469 0.523438 -0.59375 0.636719 -0.59375 Z M 0.636719 -0.59375 "/></g></g></g><g fill="#000000" fill-opacity="1"><g transform="translate(141.649542, 36.190639)"><g><path d="M 0.265625 -0.675781 L 0.339844 -0.699219 C 0.503906 -0.675781 0.625 -0.6875 0.707031 -0.726562 C 0.789062 -0.75 0.851562 -0.808594 0.890625 -0.914062 C 0.933594 -1.015625 0.964844 -1.136719 0.972656 -1.300781 C 0.972656 -1.464844 0.996094 -1.683594 1.035156 -1.949219 L 1.855469 -1.949219 C 1.898438 -1.792969 1.929688 -1.640625 1.949219 -1.496094 C 1.949219 -1.414062 1.957031 -1.34375 1.957031 -1.28125 C 1.957031 -1.21875 1.96875 -1.148438 1.988281 -1.085938 C 2.011719 -0.945312 2.050781 -0.839844 2.132812 -0.769531 C 2.195312 -0.6875 2.277344 -0.644531 2.378906 -0.644531 C 2.460938 -0.625 2.554688 -0.636719 2.65625 -0.675781 C 2.738281 -0.699219 2.808594 -0.738281 2.871094 -0.800781 C 2.871094 -0.820312 2.859375 -0.882812 2.851562 -0.964844 C 2.839844 -1.046875 2.832031 -1.148438 2.820312 -1.292969 C 2.777344 -1.558594 2.738281 -1.898438 2.695312 -2.308594 C 2.636719 -2.695312 2.574219 -3.117188 2.511719 -3.570312 C 2.472656 -3.785156 2.441406 -4 2.398438 -4.203125 C 2.359375 -4.410156 2.316406 -4.613281 2.277344 -4.820312 C 2.195312 -5.210938 2.113281 -5.539062 2.03125 -5.804688 C 1.949219 -6.070312 1.867188 -6.226562 1.804688 -6.253906 C 1.539062 -6.378906 1.324219 -6.449219 1.167969 -6.472656 C 1.003906 -6.480469 0.890625 -6.449219 0.808594 -6.378906 C 0.726562 -6.296875 0.667969 -6.203125 0.636719 -6.082031 C 0.617188 -6.019531 0.605469 -5.949219 0.59375 -5.886719 C 0.574219 -5.824219 0.5625 -5.753906 0.554688 -5.691406 C 0.511719 -5.425781 0.480469 -5.1875 0.453125 -4.964844 C 0.421875 -4.738281 0.398438 -4.53125 0.378906 -4.347656 C 0.359375 -4.164062 0.339844 -3.988281 0.316406 -3.835938 C 0.296875 -3.671875 0.277344 -3.527344 0.265625 -3.40625 C 0.246094 -3.269531 0.234375 -3.148438 0.226562 -3.046875 C 0.214844 -2.933594 0.207031 -2.832031 0.195312 -2.738281 C 0.175781 -2.554688 0.152344 -2.378906 0.132812 -2.214844 L 0.0703125 -1.722656 L 0.0195312 -1.445312 C 0 -1.34375 -0.0195312 -1.230469 -0.0429688 -1.117188 C -0.0820312 -0.953125 -0.0703125 -0.851562 -0.03125 -0.789062 C 0.0117188 -0.726562 0.101562 -0.6875 0.265625 -0.675781 Z M 1.109375 -2.585938 L 1.128906 -2.59375 C 1.117188 -2.625 1.117188 -2.667969 1.117188 -2.726562 L 1.117188 -2.933594 C 1.117188 -3.085938 1.128906 -3.261719 1.148438 -3.445312 C 1.160156 -3.539062 1.167969 -3.628906 1.191406 -3.722656 C 1.199219 -3.804688 1.210938 -3.898438 1.230469 -4 C 1.25 -4.164062 1.300781 -4.316406 1.375 -4.441406 C 1.382812 -4.378906 1.394531 -4.316406 1.40625 -4.277344 C 1.40625 -4.234375 1.414062 -4.195312 1.425781 -4.164062 C 1.425781 -4.101562 1.4375 -4.050781 1.457031 -4.011719 C 1.457031 -3.980469 1.464844 -3.925781 1.488281 -3.867188 C 1.488281 -3.835938 1.496094 -3.804688 1.496094 -3.773438 C 1.496094 -3.734375 1.507812 -3.691406 1.527344 -3.652344 C 1.539062 -3.597656 1.546875 -3.546875 1.558594 -3.488281 L 1.601562 -3.269531 C 1.621094 -3.105469 1.660156 -2.890625 1.722656 -2.625 C 1.601562 -2.585938 1.496094 -2.5625 1.40625 -2.5625 C 1.34375 -2.5625 1.292969 -2.5625 1.25 -2.5625 C 1.199219 -2.5625 1.148438 -2.574219 1.109375 -2.585938 Z M 1.109375 -2.585938 "/></g></g></g></svg>